<?xml version="1.0" encoding="iso-8859-1"?>
<!-- Generator: Adobe Illustrator 18.1.1, SVG Export Plug-In . SVG Version: 6.00 Build 0)  -->
<svg version="1.1" id="Capa_1" xmlns="http://www.w3.org/2000/svg" xmlns:xlink="http://www.w3.org/1999/xlink" x="0px" y="0px"
	 viewBox="0 0 337.597 337.597" style="enable-background:new 0 0 337.597 337.597;" xml:space="preserve">
<g>
	<g>
		<path style="fill:white;" d="M236.757,234.652c27.424-15.066,45.28-39.014,45.28-66.025c0-45.509-50.464-82.538-112.496-82.538
			S57.039,123.119,57.039,168.627c0,26.515,17.204,50.088,43.779,65.198v21.811c0,16.644,13.532,30.176,30.17,30.176
			c7.152,0,13.723-2.513,18.901-6.69c5.178,4.177,11.748,6.69,18.901,6.69c7.152,0,13.723-2.513,18.901-6.69
			c5.178,4.177,11.748,6.69,18.901,6.69c16.638,0,30.17-13.532,30.17-30.176v-20.984H236.757z M78.801,168.627
			c0-33.516,40.706-60.782,90.745-60.782s90.74,27.266,90.74,60.782c0,19.776-14.239,37.323-36.137,48.424h-9.143v1.333v2.758
			v22.915v11.58c0,4.645-3.775,8.42-8.414,8.42c-3.525,0-6.543-2.192-7.794-5.276c-0.392-0.974-0.62-2.029-0.62-3.138v-7.288V226.26
			v-4.471h-10.089H187.3H177.21h-0.789v7.386v21.734v4.732c0,1.061,0.06,2.11,0.163,3.138c-1.246,3.089-4.264,5.276-7.794,5.276
			c-3.53,0-6.543-2.192-7.794-5.276c-0.392-0.974-0.62-2.029-0.62-3.138v-4.824v-21.729v-7.31h-10.089h-0.789h-10.089h-0.789v3.911
			v22.224v7.723c0,1.061,0.06,2.11,0.163,3.138c-1.246,3.089-4.264,5.276-7.794,5.276c-4.64,0-8.414-3.775-8.414-8.42v-12.113
			v-22.996v-2.143v-1.333h-7.636C93.041,205.945,78.801,188.404,78.801,168.627z"/>
		<path style="fill:white;" d="M122.14,187.718h27.756c5.221,0,9.448-4.232,9.448-9.448v-27.756c0-5.216-4.232-9.448-9.448-9.448
			l-27.756,4.727c-5.216,0-9.448,4.232-9.448,9.448v23.029C112.692,183.487,116.918,187.718,122.14,187.718z"/>
		<path style="fill:white;" d="M188.284,187.718h27.756c5.216,0,9.448-4.232,9.448-9.448v-23.029c0-5.221-4.232-9.448-9.448-9.448
			l-27.756-4.727c-5.216,0-9.448,4.232-9.448,9.448v27.756C178.836,183.487,183.068,187.718,188.284,187.718z"/>
		<path style="fill:white;" d="M32.961,123.831c5.939,0,11.596-1.632,16.513-4.688l9.856,9.856l32.488-32.493l-9.448-9.453
			c3.622-5.205,5.608-11.395,5.608-17.835c0-17.416-14.169-31.59-31.59-31.59c-14.631,0-27.097,10.193-30.584,23.856
			C11.825,64.736,1.376,77.295,1.376,92.247C1.371,109.657,15.539,123.831,32.961,123.831z M32.993,76.974h8.028l0.131-8.023
			c0.136-8.278,6.967-15.017,15.229-15.017c8.42,0,15.273,6.853,15.273,15.273c0,4.525-2.083,8.817-5.722,11.776l-7.006,5.706
			l9.812,9.812l-9.41,9.415l-9.48-9.486l-5.765,6.179c-2.948,3.16-6.902,4.901-11.123,4.901c-8.42,0-15.273-6.853-15.273-15.273
			S24.541,76.974,32.993,76.974z"/>
		<path style="fill:white;" d="M313.742,62.517c-3.253-13.984-15.811-24.432-30.769-24.432c-17.416,0-31.585,14.169-31.585,31.59
			c0,5.939,1.632,11.596,4.688,16.513l-9.856,9.856l32.493,32.498l9.453-9.459c5.205,3.622,11.395,5.608,17.835,5.608
			c17.416,0,31.585-14.169,31.585-31.59C337.586,78.469,327.399,66.003,313.742,62.517z M306.007,108.368
			c-4.525,0-8.817-2.083-11.77-5.716l-5.711-7.016l-9.812,9.818l-9.415-9.41l9.486-9.48l-6.179-5.765
			c-3.16-2.948-4.901-6.902-4.901-11.123c0-8.42,6.848-15.273,15.267-15.273c8.284,0,15.055,6.636,15.267,14.865v8.469l8.023,0.131
			c8.278,0.136,15.017,6.967,15.017,15.229C321.269,101.515,314.427,108.368,306.007,108.368z"/>
		<path style="fill:white;" d="M306.007,213.369c-6.445,0-12.63,1.985-17.835,5.608l-9.453-9.453l-32.493,32.493l9.856,9.856
			c-3.057,4.917-4.688,10.574-4.688,16.513c0,17.416,14.163,31.585,31.585,31.585c14.957,0,27.522-10.448,30.769-24.427
			c13.663-3.492,23.85-15.958,23.85-30.578C337.586,227.538,323.423,213.369,306.007,213.369z M298.235,268.739
			c-0.19,8.257-6.967,14.903-15.267,14.903c-8.42,0-15.267-6.848-15.267-15.267c0-4.221,1.741-8.175,4.901-11.123l6.179-5.765
			l-9.486-9.48l9.415-9.415l9.812,9.812l5.706-7.006c2.959-3.633,7.25-5.716,11.776-5.716c8.42,0,15.267,6.853,15.267,15.273
			c0,8.257-6.734,15.088-15.017,15.229l-8.017,0.136V268.739z"/>
		<path style="fill:white;" d="M86.198,268.38c0-5.939-1.632-11.596-4.688-16.513l9.856-9.856l-32.493-32.493l-9.453,9.453
			c-5.205-3.622-11.395-5.608-17.835-5.608C14.169,213.364,0,227.532,0,244.954c0,14.62,10.187,27.087,23.85,30.578
			c3.253,13.978,15.806,24.427,30.763,24.427C72.024,299.959,86.198,285.796,86.198,268.38z M31.329,260.183
			c-8.278-0.136-15.017-6.973-15.017-15.229c0-8.42,6.848-15.273,15.267-15.273c4.525,0,8.817,2.083,11.776,5.716l5.706,7.006
			l9.812-9.812l9.415,9.415l-9.486,9.48l6.179,5.765c3.16,2.948,4.901,6.902,4.901,11.123c0,8.42-6.853,15.267-15.273,15.267
			c-8.278,0-15.05-6.63-15.262-14.86v-8.463L31.329,260.183z"/>
	</g>
</g>
<g>
</g>
<g>
</g>
<g>
</g>
<g>
</g>
<g>
</g>
<g>
</g>
<g>
</g>
<g>
</g>
<g>
</g>
<g>
</g>
<g>
</g>
<g>
</g>
<g>
</g>
<g>
</g>
<g>
</g>
</svg>
